<svg width='32' height='32' viewBox='0 0 32 32' xmlns='http://www.w3.org/2000/svg' xmlns:xlink='http://www.w3.org/1999/xlink'><rect width='32' height='32' stroke='none' fill='#8a94a3' opacity='0'/>
  <g transform="matrix(1.27 0 0 1.27 16 16)" >
  <path style="stroke: none; stroke-width: 1; stroke-dasharray: none; stroke-linecap: butt; stroke-dashoffset: 0; stroke-linejoin: miter; stroke-miterlimit: 4; fill: #8a94a3; fill-rule: nonzero; opacity: 1;" transform=" translate(-12, -11.5)" d="M 12 2 C 11.732881594550495 2.00003426433237 11.476879628179267 2.106936109171805 11.289062 2.296875 L 1.203125 11.097656 C 1.075381483022961 11.191917794795366 0.9999938997566545 11.341243292896037 1 11.5 C 1 11.776142374915397 1.2238576250846034 12 1.5 12 L 4 12 L 4 20 C 4 20.552 4.448 21 5 21 L 9 21 C 9.552 21 10 20.552 10 20 L 10 14 L 14 14 L 14 20 C 14 20.552 14.448 21 15 21 L 19 21 C 19.552 21 20 20.552 20 20 L 20 12 L 22.5 12 C 22.7761423749154 12 23 11.776142374915397 23 11.5 C 23.000006100243347 11.341243292896037 22.924618516977038 11.191917794795366 22.796875 11.097656 L 12.716797 2.3027344 C 12.714852100403421 2.300773183578107 12.712899083641545 2.298820033481753 12.710938 2.296875 C 12.523120371820733 2.106936109171805 12.267118405449505 2.00003426433237 12 2 z" stroke-linecap="round" />
  </g>
</svg>