<svg width='32' height='32' viewBox='0 0 32 32' xmlns='http://www.w3.org/2000/svg' xmlns:xlink='http://www.w3.org/1999/xlink'>
  <rect width='32' height='32' stroke='none' fill='#009bd5' opacity='0'/>
  <g transform="matrix(0.58 0 0 0.58 16 16)" >
  <g transform="matrix(1 0 0 1 -2 -2)" >
  <path style="stroke: none; stroke-width: 1; stroke-dasharray: none; stroke-linecap: butt; stroke-dashoffset: 0; stroke-linejoin: miter; stroke-miterlimit: 4; fill: #009bd5; fill-rule: nonzero; opacity: 1;" transform=" translate(-22, -22)" d="M 32 4 L 12 4 C 9.794 4 8 5.794 8 8 L 8 36 C 8 38.206 9.794 40 12 40 L 32 40 C 34.206 40 36 38.206 36 36 L 36 8 C 36 5.794 34.206 4 32 4 z" stroke-linecap="round" />
  </g>
  <g transform="matrix(1 0 0 1 3 2)" >
  <path style="stroke: none; stroke-width: 1; stroke-dasharray: none; stroke-linecap: butt; stroke-dashoffset: 0; stroke-linejoin: miter; stroke-miterlimit: 4; fill: #009bd5; fill-rule: nonzero; opacity: 1;" transform=" translate(-27, -26)" d="M 36 45 L 16 45 C 14.346 45 13 43.653999999999996 13 42 C 13 41.447 13.447 41 14 41 C 14.553 41 15 41.447 15 42 C 15 42.552 15.448 43 16 43 L 36 43 C 37.653999999999996 43 39 41.653999999999996 39 40 L 39 10 C 39 9.448 38.552 9 38 9 C 37.447 9 37 8.553 37 8 C 37 7.446999999999999 37.447 7 38 7 C 39.653999999999996 7 41 8.346 41 10 L 41 40 C 41 42.757 38.757 45 36 45 z" stroke-linecap="round" />
  </g>
  <g transform="matrix(1 0 0 1 -2.02 -1.99)" >
  <path style="stroke: none; stroke-width: 1; stroke-dasharray: none; stroke-linecap: butt; stroke-dashoffset: 0; stroke-linejoin: miter; stroke-miterlimit: 4; fill: #fff; fill-rule: nonzero; opacity: 1;" transform=" translate(-21.98, -22.01)" d="M 20.295 24.938 L 20.295 24.555 C 20.295 22.709 21.156000000000002 21.493 23.029000000000003 20.371 C 24.615000000000002 19.4 25.230000000000004 18.512 25.230000000000004 17.116999999999997 C 25.230000000000004 15.339999999999998 23.890000000000004 14.136999999999997 21.880000000000003 14.136999999999997 C 20.062 14.136999999999997 18.859 15.052999999999997 18.407000000000004 16.693999999999996 C 18.175000000000004 17.527999999999995 17.874000000000002 17.787999999999997 17.259000000000004 17.787999999999997 C 16.562000000000005 17.787999999999997 16.179000000000002 17.377999999999997 16.179000000000002 16.666999999999998 C 16.179000000000002 16.078999999999997 16.288000000000004 15.613999999999997 16.534000000000002 15.080999999999998 C 17.341 13.139999999999997 19.35 12.004999999999997 21.975 12.004999999999997 C 25.366 12.004999999999997 27.772000000000002 14.068999999999997 27.772000000000002 16.994999999999997 C 27.772000000000002 19.141 26.665000000000003 20.618 24.915000000000003 21.671 C 23.179000000000002 22.695999999999998 22.686000000000003 23.462 22.686000000000003 24.898 C 22.686000000000003 25.759 22.358000000000004 26.347 21.510000000000005 26.347 C 20.662000000000006 26.347 20.295 25.718 20.295 24.938 z M 19.939 30.462 C 19.939 29.573 20.623 28.903 21.498 28.903 C 22.387 28.903 23.057000000000002 29.573 23.057000000000002 30.462 C 23.057000000000002 31.337 22.387 32.021 21.498 32.021 C 20.623 32.021 19.939 31.337 19.939 30.462 z" stroke-linecap="round" />
  </g>
  </g>
</svg>