<svg width='32' height='32' viewBox='0 0 32 32' xmlns='http://www.w3.org/2000/svg' xmlns:xlink='http://www.w3.org/1999/xlink'>
  <rect width='32' height='32' stroke='none' fill='#8a94a3' opacity='0'/>
  <g transform="matrix(1.17 0 0 1.17 16 16)" >
  <path style="stroke: none; stroke-width: 1; stroke-dasharray: none; stroke-linecap: butt; stroke-dashoffset: 0; stroke-linejoin: miter; stroke-miterlimit: 4; fill: #8a94a3; fill-rule: nonzero; opacity: 1;" transform=" translate(-15, -15)" d="M 15 3 C 8.373 3 3 8.373 3 15 C 3 21.627 8.373000000000001 27 15 27 C 21.627 27 27 21.627 27 15 C 27 8.373 21.627 3 15 3 z M 21 16 L 16 16 L 16 21 C 16 21.553 15.552 22 15 22 C 14.448 22 14 21.553 14 21 L 14 16 L 9 16 C 8.448 16 8 15.553 8 15 C 8 14.447 8.448 14 9 14 L 14 14 L 14 9 C 14 8.447 14.448 8 15 8 C 15.552 8 16 8.447 16 9 L 16 14 L 21 14 C 21.552 14 22 14.447 22 15 C 22 15.553 21.552 16 21 16 z" stroke-linecap="round" />
  </g>
</svg>